<svg width="90" height="90" viewBox="0 0 90 90" fill="none" xmlns="http://www.w3.org/2000/svg">
<path fill-rule="evenodd" clip-rule="evenodd" d="M19.481 12.0692C26.588 8.47232 35.3392 6 44.7503 6C53.6805 6 62.7377 8.35926 69.8672 11.9675C71.1264 12.6048 71.6305 14.1421 70.9933 15.4013C70.356 16.6604 68.8187 17.1646 67.5595 16.5273C61.1154 13.266 52.8459 11.1105 44.7503 11.1105C36.221 11.1105 28.2554 13.3562 21.7887 16.629C20.5296 17.2662 18.9922 16.7621 18.355 15.5029C17.7177 14.2438 18.2218 12.7064 19.481 12.0692ZM23.9248 19.8604C30.0928 16.9812 38.0156 15.4531 44.7209 15.4531C51.4369 15.4531 59.1623 16.9852 65.3218 19.8604C72.1801 23.0618 77.9257 27.7119 81.8665 33.1852C82.691 34.3305 82.4311 35.9273 81.2858 36.7519C80.1406 37.5765 78.5437 37.3165 77.7191 36.1713C74.3414 31.48 69.3125 27.3631 63.1601 24.4912C57.7494 21.9655 50.7736 20.5636 44.7209 20.5636C38.6576 20.5636 31.4886 21.9695 26.0865 24.4912C20.1994 27.2393 14.9239 31.6607 11.6347 36.2652C10.8144 37.4135 9.21846 37.6794 8.07014 36.8591C6.92182 36.0388 6.65591 34.4429 7.47623 33.2946C11.3022 27.9387 17.2806 22.9619 23.9248 19.8604ZM44.3954 24.703C57.5569 24.5764 69.0416 31.3539 74.87 41.0909C77.9293 46.2017 78.9937 51.3395 78.9937 55.7189C78.9937 63.1772 72.1844 67.8289 66.0706 67.8289C63.0085 67.8289 59.7556 67.0099 57.1773 65.044C54.5206 63.0182 52.7649 59.9057 52.6404 55.7963C52.5658 53.3355 51.4402 51.7059 49.8955 50.6144C48.2658 49.4628 46.1571 48.9228 44.42 48.9228C39.6945 48.9228 36.4041 52.3994 36.4041 55.7189C36.4041 58.4868 37.273 62.3729 38.4191 64.9453C39.5807 67.5524 41.6644 70.5879 43.695 72.4255L43.7193 72.4475L43.743 72.47C47.0674 75.6371 51.2242 78.4581 57.3201 79.8465C58.6961 80.1599 59.5575 81.5294 59.2441 82.9054C58.9307 84.2814 57.5612 85.1428 56.1852 84.8294C49.0146 83.1962 44.0708 79.8352 40.2412 76.1924C37.6101 73.8025 35.1488 70.1626 33.751 67.0251C32.3332 63.843 31.2936 59.2509 31.2936 55.7189C31.2936 49.0772 37.3993 43.8123 44.42 43.8123C47.0537 43.8123 50.2305 44.5936 52.8446 46.4406C55.5436 48.3477 57.6198 51.3938 57.7485 55.6415C57.8273 58.2408 58.8669 59.9056 60.276 60.9801C61.7636 62.1144 63.847 62.7184 66.0706 62.7184C70.1283 62.7184 73.8832 59.645 73.8832 55.7189C73.8832 52.1701 73.0235 47.9564 70.4851 43.7157C65.6143 35.5785 55.8421 29.7036 44.4446 29.8132C34.5546 29.9083 24.0378 34.5791 18.6631 43.6087C16.3721 47.4575 15.2228 51.8559 15.3622 56.4547C15.554 62.7838 16.4766 65.4401 18.1462 69.8595C18.6449 71.1797 17.979 72.6542 16.6589 73.1529C15.3387 73.6516 13.8642 72.9857 13.3655 71.6656C11.5791 66.9369 10.4688 63.6977 10.254 56.6095C10.0854 51.0438 11.4804 45.6841 14.2717 40.9947C20.7556 30.1017 33.1431 24.8112 44.3954 24.703ZM20.8241 55.2885C20.8394 43.5075 32.1768 34.2576 44.42 34.2576C56.5955 34.2576 68.4225 42.6415 68.4225 56.0239C68.4225 57.4351 67.2785 58.5791 65.8673 58.5791C64.4561 58.5791 63.312 57.4351 63.312 56.0239C63.312 46.231 54.6066 39.3681 44.42 39.3681C34.3094 39.3681 25.9345 46.9788 25.9345 55.3124V55.3357L25.9341 55.3591C25.849 60.0098 26.5894 64.4471 29.0101 69.1954C31.48 74.0402 34.4492 77.3313 37.1635 79.7207C38.2228 80.6531 38.3256 82.2677 37.3931 83.327C36.4607 84.3863 34.8461 84.4891 33.7868 83.5566C30.6841 80.8254 27.2728 77.0397 24.4571 71.5165C21.5963 65.9049 20.7293 60.6182 20.8241 55.2885ZM44.42 53.1637C45.8312 53.1637 46.9752 54.3077 46.9752 55.7189C46.9752 58.4785 47.7322 61.0932 49.1738 63.589C50.561 65.9906 52.366 67.7229 54.8424 69.2241C58.4465 71.1901 60.9206 71.8619 64.6839 71.7657L64.7015 71.7653L64.719 71.7651C66.2052 71.7475 67.9486 71.6247 69.3243 71.3848C70.7146 71.1423 72.0382 72.0728 72.2806 73.463C72.5231 74.8532 71.5926 76.1768 70.2024 76.4193C68.4814 76.7194 66.4569 76.8546 64.7969 76.875C59.9948 76.9952 56.6347 76.0302 52.3416 73.6813L52.2945 73.6555L52.2485 73.6278C49.1234 71.7431 46.6383 69.4168 44.7485 66.1451C42.9047 62.953 41.8648 59.4648 41.8648 55.7189C41.8648 54.3077 43.0088 53.1637 44.42 53.1637Z" fill="#FA7545"/>
</svg>
