<svg width="100" height="100" viewBox="0 0 100 100" fill="none" xmlns="http://www.w3.org/2000/svg">
<path fill-rule="evenodd" clip-rule="evenodd" d="M19.8176 9.75321C28.3321 5.44403 38.8164 2.48209 50.0913 2.48209C60.79 2.48209 71.6409 5.30858 80.1824 9.63143C81.6909 10.3949 82.2949 12.2367 81.5314 13.7452C80.768 15.2537 78.9262 15.8577 77.4177 15.0942C69.6974 11.187 59.7901 8.60467 50.0913 8.60467C39.8729 8.60467 30.3297 11.2951 22.5824 15.216C21.0738 15.9795 19.2321 15.3755 18.4686 13.867C17.7051 12.3585 18.3091 10.5167 19.8176 9.75321ZM25.1415 19.0874C32.531 15.638 42.0228 13.8073 50.0561 13.8073C58.1021 13.8073 67.3575 15.6428 74.7367 19.0874C82.9532 22.9229 89.8367 28.4939 94.5579 35.0511C95.5458 36.4231 95.2344 38.3362 93.8623 39.3241C92.4903 40.312 90.5771 40.0006 89.5892 38.6285C85.5426 33.0081 79.5178 28.076 72.147 24.6353C65.6647 21.6094 57.3074 19.9298 50.0561 19.9298C42.792 19.9298 34.2033 21.6142 27.7312 24.6353C20.6783 27.9276 14.358 33.2247 10.4174 38.741C9.43464 40.1168 7.5227 40.4353 6.14697 39.4526C4.77123 38.4698 4.45267 36.5578 5.43544 35.1821C10.0191 28.7656 17.1815 22.8031 25.1415 19.0874ZM49.6661 24.889C65.4341 24.7374 79.1932 32.8571 86.1759 44.5225C89.841 50.6453 91.1163 56.8006 91.1163 62.0474C91.1163 70.9827 82.9585 76.5556 75.6338 76.5556C71.9654 76.5556 68.0682 75.5744 64.9793 73.2192C61.7965 70.7923 59.6931 67.0633 59.5439 62.1401C59.4546 59.1919 58.1061 57.2396 56.2554 55.9319C54.303 54.5523 51.7766 53.9053 49.6956 53.9053C44.0343 53.9053 40.0922 58.0705 40.0922 62.0474C40.0922 65.3634 41.1332 70.0191 42.5062 73.1009C43.8979 76.2244 46.3942 79.861 48.827 82.0625L48.8561 82.0889L48.8845 82.1159C52.8673 85.9101 57.8473 89.2898 65.1505 90.9532C66.7989 91.3287 67.8309 92.9694 67.4555 94.6179C67.08 96.2664 65.4393 97.2983 63.7908 96.9229C55.2001 94.9662 49.2772 90.9396 44.6892 86.5754C41.537 83.7123 38.5884 79.3515 36.9136 75.5926C35.2151 71.7803 33.9696 66.2789 33.9696 62.0474C33.9696 54.0903 41.2845 47.7827 49.6956 47.7827C52.8509 47.7827 56.6568 48.7188 59.7886 50.9316C63.022 53.2163 65.5095 56.8657 65.6637 61.9547C65.7581 65.0687 67.0035 67.0632 68.6917 68.3505C70.4739 69.7094 72.97 70.4331 75.6338 70.4331C80.4952 70.4331 84.9937 66.751 84.9937 62.0474C84.9937 57.7957 83.9638 52.7476 80.9226 47.6671C75.0871 37.9183 63.3797 30.88 49.725 31.0113C37.8764 31.1252 25.2769 36.721 18.8377 47.5388C16.093 52.1499 14.7162 57.4193 14.8831 62.9289C15.1129 70.5113 16.2183 73.6937 18.2185 78.9884C18.816 80.57 18.0182 82.3365 16.4366 82.934C14.855 83.5315 13.0885 82.7337 12.491 81.1521C10.3508 75.4869 9.0207 71.6063 8.76337 63.1143C8.56131 56.4463 10.2326 50.0253 13.5766 44.4072C21.3447 31.3569 36.1854 25.0186 49.6661 24.889ZM21.4267 61.5317C21.445 47.4176 35.0277 36.3358 49.6956 36.3358C64.2823 36.3358 78.4516 46.3801 78.4516 62.4127C78.4516 64.1034 77.081 65.474 75.3903 65.474C73.6996 65.474 72.329 64.1034 72.329 62.4127C72.329 50.6804 61.8995 42.4584 49.6956 42.4584C37.5827 42.4584 27.5492 51.5764 27.5492 61.5603V61.5883L27.5487 61.6163C27.4468 67.1881 28.3338 72.5041 31.2339 78.1927C34.1929 83.9969 37.7501 87.9398 41.002 90.8024C42.2711 91.9196 42.3942 93.8539 41.2771 95.123C40.16 96.3921 38.2256 96.5152 36.9565 95.3981C33.2394 92.126 29.1526 87.5905 25.7792 80.9735C22.3519 74.2506 21.3131 67.9169 21.4267 61.5317ZM49.6956 58.9861C51.3863 58.9861 52.7569 60.3567 52.7569 62.0474C52.7569 65.3534 53.6637 68.486 55.3908 71.4761C57.0527 74.3533 59.2152 76.4286 62.182 78.2271C66.4999 80.5825 69.464 81.3873 73.9725 81.2721L73.9936 81.2716L74.0146 81.2713C75.7951 81.2503 77.8838 81.1031 79.532 80.8157C81.1975 80.5252 82.7832 81.6399 83.0737 83.3055C83.3642 84.9711 82.2495 86.5567 80.5839 86.8472C78.522 87.2068 76.0967 87.3688 74.108 87.3932C68.3548 87.5372 64.3292 86.3811 59.186 83.567L59.1296 83.5361L59.0745 83.5029C55.3304 81.2449 52.3531 78.458 50.0891 74.5384C47.8801 70.7141 46.6343 66.535 46.6343 62.0474C46.6343 60.3567 48.0049 58.9861 49.6956 58.9861Z" fill="#FA7545"/>
</svg>
