<svg width="128" height="23" viewBox="0 0 128 23" fill="none" xmlns="http://www.w3.org/2000/svg">
<g clip-path="url(#clip0_2002_36)">
<path fill-rule="evenodd" clip-rule="evenodd" d="M3.49767 1.71163C5.71644 0.604425 8.16218 0.0280762 10.6419 0.0280762C13.1215 0.0280762 15.5673 0.604425 17.786 1.71163C17.9029 1.82363 17.98 1.97065 18.0057 2.13042C18.0315 2.29019 18.0045 2.454 17.9287 2.59703C17.853 2.74005 17.7327 2.8545 17.5861 2.92302C17.4395 2.99154 17.2746 3.0104 17.1163 2.97675C15.1053 1.97422 12.8889 1.45239 10.6419 1.45239C8.39481 1.45239 6.17846 1.97422 4.16744 2.97675C4.00915 3.0104 3.8442 2.99154 3.69758 2.92302C3.55097 2.8545 3.43069 2.74005 3.35497 2.59703C3.27926 2.454 3.25222 2.29019 3.27797 2.13042C3.30372 1.97065 3.38085 1.82363 3.49767 1.71163ZM4.76279 3.94419C6.61771 3.13707 8.61895 2.72054 10.6419 2.72054C12.6648 2.72054 14.666 3.13707 16.5209 3.94419C18.4558 4.83721 20.093 6.17675 21.2093 7.66512C21.3277 7.82302 21.3786 8.02149 21.3507 8.21687C21.3227 8.41226 21.2184 8.58856 21.0605 8.70698C20.9823 8.76562 20.8933 8.80828 20.7986 8.83253C20.704 8.85679 20.6055 8.86216 20.5087 8.84834C20.3133 8.82043 20.137 8.71604 20.0186 8.55814C18.9601 7.113 17.5517 5.96063 15.9256 5.20931C14.2722 4.48157 12.4855 4.10575 10.6791 4.10575C8.87262 4.10575 7.08593 4.48157 5.43256 5.20931C3.72093 5.95349 2.23256 7.29303 1.33954 8.55814C1.21519 8.66861 1.05742 8.73423 0.891419 8.74454C0.725414 8.75486 0.560739 8.70926 0.42368 8.61503C0.286621 8.5208 0.185079 8.38338 0.135262 8.22469C0.0854448 8.066 0.0902243 7.89519 0.148838 7.73954C1.1907 6.25117 2.90233 4.76279 4.76279 3.94419ZM10.5674 5.20931C14.2884 5.20931 17.5628 7.06977 19.2 9.82326C20.093 11.3116 20.3907 12.8 20.3907 13.9907C20.3907 16.0744 18.4558 17.414 16.6698 17.414C15.8512 17.414 14.9581 17.1907 14.214 16.6698C13.4698 16.0744 12.9488 15.1814 12.9488 13.9907C12.9488 13.3209 12.5767 12.8744 12.2047 12.5023C11.6837 12.2047 11.0884 12.0558 10.5674 12.0558C9.22791 12.0558 8.33488 13.0233 8.33488 13.9907C8.33488 14.7349 8.55814 15.8512 8.85581 16.5954C9.22791 17.3395 9.82326 18.2326 10.3442 18.7535C11.3116 19.6465 12.5767 20.4651 14.214 20.8372C14.3637 20.9095 14.485 21.0299 14.5584 21.1792C14.6317 21.3284 14.653 21.498 14.6187 21.6607C14.5845 21.8235 14.4967 21.9701 14.3693 22.0771C14.242 22.1841 14.0825 22.2454 13.9163 22.2512C12.5507 21.9342 11.2735 21.315 10.1788 20.4393C9.08412 19.5635 8.19971 18.4534 7.5907 17.1907C7.14419 16.2977 6.84651 14.9581 6.84651 13.9907C6.84651 12.1302 8.63256 10.6419 10.5674 10.6419C11.3116 10.6419 12.2047 10.8651 12.9488 11.386C13.693 11.907 14.2884 12.8 14.3628 13.9907C14.3628 14.7349 14.6605 15.1814 15.107 15.4791C15.4791 15.7767 16.0744 16 16.7442 16C17.8605 16 18.9767 15.107 18.9767 13.9907C18.9767 13.0233 18.6791 11.7581 17.9349 10.5674C17.1427 9.34383 16.0487 8.34496 14.7582 7.66715C13.4678 6.98933 12.0245 6.65545 10.5674 6.69768C7.81395 6.69768 4.83721 8.03721 3.27442 10.5674C2.6352 11.673 2.32535 12.9382 2.3814 14.214C2.3814 16 2.67907 16.7442 3.12558 17.9349C3.18623 18.025 3.22641 18.1273 3.2433 18.2347C3.26019 18.342 3.25338 18.4517 3.22334 18.5561C3.1933 18.6605 3.14077 18.7571 3.06943 18.839C2.9981 18.9209 2.90968 18.9863 2.81041 19.0304C2.71113 19.0745 2.6034 19.0964 2.49477 19.0944C2.38615 19.0925 2.27927 19.0667 2.18165 19.0191C2.08402 18.9714 1.99802 18.9029 1.92967 18.8185C1.86133 18.734 1.81231 18.6357 1.78605 18.5302C1.26512 17.1907 1.04186 16.2977 0.893024 14.214C0.862987 12.6668 1.27614 11.1433 2.08372 9.82326C3.86977 6.7721 7.36744 5.28372 10.5674 5.20931ZM3.86977 13.8419C3.86977 10.5674 7.14419 7.88838 10.5674 7.88838C14.0651 7.88838 17.414 10.2698 17.414 14.0651C17.414 14.2625 17.3355 14.4518 17.196 14.5913C17.0564 14.7309 16.8671 14.8093 16.6698 14.8093C16.4724 14.8093 16.2831 14.7309 16.1435 14.5913C16.004 14.4518 15.9256 14.2625 15.9256 14.0651C15.9256 11.3116 13.4698 9.37675 10.5674 9.37675C7.73953 9.37675 5.35814 11.5349 5.35814 13.8419C5.35814 15.1814 5.50698 16.4465 6.25116 17.786C6.79891 18.9115 7.55669 19.9218 8.48372 20.7628C8.59036 20.807 8.68527 20.8753 8.76094 20.9625C8.83661 21.0496 8.89097 21.1532 8.91972 21.265C8.94847 21.3768 8.95082 21.4937 8.92659 21.6066C8.90235 21.7194 8.8522 21.8251 8.7801 21.9152C8.70799 22.0054 8.61591 22.0775 8.51112 22.1259C8.40634 22.1743 8.29174 22.1977 8.17636 22.1942C8.06099 22.1907 7.94802 22.1604 7.84637 22.1057C7.74472 22.051 7.65719 21.9734 7.5907 21.8791C6.48476 20.9219 5.57494 19.7594 4.91163 18.4558C4.16744 16.893 3.86977 15.4047 3.94419 13.8419H3.86977ZM10.5674 13.2465C11.014 13.2465 11.3116 13.6186 11.3116 13.9907C11.3166 14.7639 11.5257 15.522 11.9177 16.1885C12.3098 16.8549 12.8708 17.406 13.5442 17.786C14.586 18.3814 15.2558 18.5302 16.2977 18.5302C16.7454 18.5396 17.1932 18.5147 17.6372 18.4558C17.7417 18.4074 17.8559 18.3839 17.971 18.3871C18.0861 18.3903 18.1989 18.4202 18.3004 18.4744C18.402 18.5286 18.4896 18.6056 18.5564 18.6994C18.6232 18.7932 18.6673 18.9012 18.6852 19.0149C18.7032 19.1287 18.6945 19.245 18.6599 19.3548C18.6253 19.4646 18.5656 19.5649 18.4857 19.6477C18.4058 19.7306 18.3077 19.7938 18.1992 19.8323C18.0907 19.8708 17.9748 19.8836 17.8605 19.8698L16.3721 20.0186C15.0326 20.0186 14.0651 19.7209 12.8 19.0512C11.8988 18.5484 11.1479 17.8145 10.6247 16.925C10.1014 16.0355 9.82481 15.0227 9.82326 13.9907C9.82326 13.6186 10.1953 13.2465 10.5674 13.2465Z" fill="#F35B22"/>
<path d="M28.5767 10.493H32.9674V11.9814H28.5767V16.9674H26.6419V5.35813H33.786L33.5628 6.8465H28.5767V10.5674V10.493ZM38.9954 3.72092C39.293 3.72092 39.5907 3.79534 39.814 4.09301C40.0372 4.31627 40.186 4.53952 40.186 4.8372C40.186 5.20929 40.0372 5.58138 39.814 5.73022C39.5907 5.95347 39.293 6.10231 38.9209 6.10231C38.5488 6.10231 38.2512 5.95347 38.0279 5.73022C37.8047 5.50696 37.7302 5.20929 37.7302 4.91161C37.7302 4.53952 37.8047 4.24185 38.0279 4.01859C38.3256 3.79534 38.6233 3.72092 38.9209 3.72092H38.9954ZM40.186 15.6279H42.5674V16.9674H35.7209V15.5535H38.4V9.45115H35.7209V8.0372H40.186V15.6279ZM44.7256 8.0372H46.3628L46.5116 9.22789C46.8507 8.7909 47.2828 8.43498 47.7767 8.18603C48.2852 7.93369 48.8464 7.80613 49.414 7.81394C50.1581 7.81394 50.8279 8.0372 51.2 8.55813C51.6465 9.00464 51.8698 9.59999 51.8698 10.493V16.9674H49.9349V11.386C49.9798 10.9655 49.9798 10.5414 49.9349 10.1209C49.786 9.82324 49.7116 9.59999 49.4884 9.52557C49.3395 9.37673 49.0419 9.30231 48.7442 9.30231C48.2977 9.30231 47.9256 9.37673 47.5535 9.6744C47.2061 9.91787 46.9039 10.2201 46.6605 10.5674V16.9674H44.7256V8.0372ZM62.1395 8.48371L61.0233 8.70696L59.5349 8.78138C60.001 8.97343 60.4107 9.28071 60.7256 9.6744C61.0233 10.0465 61.1721 10.493 61.1721 11.0884C61.1707 11.6323 61.0165 12.1649 60.727 12.6255C60.4375 13.086 60.0244 13.4559 59.5349 13.693C59.014 13.9163 58.3442 14.0651 57.6744 14.0651C57.1535 14.0651 56.707 14.0651 56.4093 13.9163C56.2915 14.0008 56.1961 14.1127 56.1313 14.2424C56.0665 14.372 56.0342 14.5155 56.0372 14.6605C56.0372 15.107 56.4093 15.3302 57.1535 15.3302H58.6419C59.386 15.3302 59.907 15.4046 60.3535 15.6279C60.8744 15.8511 61.2465 16.1488 61.5442 16.5209C61.7674 16.893 61.9163 17.2651 61.9163 17.786C61.9299 18.1907 61.8332 18.5914 61.6366 18.9454C61.44 19.2993 61.1508 19.5931 60.8 19.7953C60.0558 20.3163 58.9395 20.5395 57.5256 20.5395C56.4837 20.5395 55.7395 20.4651 55.1442 20.2418C54.6294 20.1046 54.1807 19.7879 53.8791 19.3488C53.6529 18.8868 53.5503 18.374 53.5814 17.8605H55.2186C55.2186 18.1581 55.2186 18.3814 55.4419 18.6046C55.5163 18.8279 55.7395 18.9767 56.1116 19.0511L57.5256 19.2C58.4186 19.2 59.014 19.0511 59.4605 18.8279C59.8326 18.6791 60.0558 18.307 60.0558 17.8605C60.0558 17.5628 59.907 17.2651 59.5349 17.1163C59.2372 16.893 58.7907 16.7442 58.3442 16.7442H56.8558C55.9628 16.7442 55.3674 16.5953 54.9953 16.2977C54.8001 16.1517 54.6437 15.96 54.5399 15.7394C54.4361 15.5188 54.388 15.2761 54.4 15.0325C54.4 14.7349 54.4 14.4372 54.6233 14.2139C54.8085 13.9101 55.0636 13.655 55.3674 13.4698C54.8838 13.2362 54.4724 12.8762 54.1767 12.4279C53.9535 12.0558 53.8047 11.5349 53.8047 10.9395C53.8047 10.3442 53.9535 9.82324 54.3256 9.30231C54.6415 8.84349 55.0798 8.48252 55.5907 8.26045C56.186 7.96278 56.7814 7.81394 57.5256 7.81394C58.493 7.81394 59.2372 7.81394 59.7581 7.59068C60.4 7.43309 61.0236 7.20861 61.6186 6.92092L62.1395 8.48371ZM57.5256 9.15347C56.9302 9.15347 56.4837 9.30231 56.186 9.6744C55.8884 9.97208 55.7395 10.4186 55.7395 10.9395C55.7395 11.5349 55.8884 11.9814 56.186 12.3535C56.4837 12.6511 56.9302 12.8 57.5256 12.8C58.1209 12.8 58.5674 12.6511 58.8651 12.3535C59.1628 11.9814 59.3116 11.6093 59.3116 10.8651C59.3116 9.74882 58.7163 9.15347 57.5256 9.15347ZM65.1163 13.0977C65.1163 13.9907 65.414 14.586 65.8605 15.0325C66.307 15.4791 66.9023 15.7023 67.5721 15.7023C67.9442 15.7023 68.3163 15.7023 68.6884 15.4791C69.1343 15.3367 69.5596 15.1366 69.9535 14.8837L70.6977 16.0744C70.2749 16.4055 69.7959 16.6576 69.2837 16.8186C68.7136 17.0424 68.1097 17.1682 67.4977 17.1907C66.1581 17.1907 65.1163 16.7442 64.3721 15.9256C63.5866 14.9634 63.1885 13.7426 63.2558 12.5023C63.2558 11.6093 63.4046 10.7907 63.7023 10.1209C64.0744 9.37673 64.5209 8.8558 65.1907 8.40929C65.786 8.0372 66.4558 7.81394 67.2744 7.81394C68.4651 7.81394 69.4326 8.26045 70.1023 9.00464C70.8465 9.74882 71.1442 10.8651 71.1442 12.2791V13.0977H65.1907H65.1163ZM67.2744 9.22789C66.6047 9.22789 66.1581 9.45115 65.786 9.89766C65.414 10.3442 65.1907 10.9395 65.0419 11.8325H69.2093C69.2093 11.0139 69.0605 10.3442 68.6884 9.89766C68.3163 9.45115 67.8698 9.15347 67.2 9.15347L67.2744 9.22789ZM79.2558 7.81394L80.5953 8.0372L80.2977 11.3116H78.9581V9.52557C78.6486 9.52931 78.3431 9.5974 78.0613 9.72552C77.7794 9.85363 77.5273 10.039 77.3209 10.2698C76.8306 10.8551 76.4749 11.541 76.2791 12.2791V15.6279H78.0651V16.9674H73.0791V15.6279H74.3442V9.37673H73.0791V8.0372H75.7581L76.1302 10.1209C76.5023 9.37673 76.8744 8.78138 77.3953 8.40929C77.9309 8.00722 78.5863 7.79747 79.2558 7.81394ZM86.6977 7.81394C88.9302 7.81394 89.9721 9.37673 89.9721 12.5023C89.9721 13.9163 89.6744 15.0325 89.0791 15.8511C88.8039 16.2691 88.4278 16.6109 87.9856 16.8451C87.5433 17.0792 87.0492 17.1981 86.5488 17.1907C85.5814 17.1907 84.8372 16.8186 84.3163 16.1488V20.3163L82.3814 20.5395V8.0372H84.0186L84.093 9.22789C84.4651 8.78138 84.8372 8.48371 85.2837 8.18603C85.7388 7.93409 86.252 7.8058 86.7721 7.81394H86.6977ZM86.1767 9.30231C85.807 9.29126 85.443 9.39527 85.1349 9.59999C84.7628 9.82324 84.5395 10.1953 84.2419 10.5674V14.7349C84.6884 15.3302 85.2837 15.7023 86.0279 15.7023C86.6233 15.7023 87.1442 15.4046 87.5163 14.9581C87.814 14.4372 87.9628 13.6186 87.9628 12.5023C88.0152 11.6596 87.8619 10.8168 87.5163 10.0465C87.3815 9.81265 87.1856 9.61986 86.9496 9.48877C86.7137 9.35768 86.4465 9.29323 86.1767 9.30231ZM98.0837 7.81394L99.4233 8.0372L99.1256 11.3116H97.786V9.52557C97.4765 9.52931 97.171 9.5974 96.8892 9.72552C96.6073 9.85363 96.3552 10.039 96.1488 10.2698C95.6318 10.8481 95.2504 11.5345 95.0325 12.2791V15.6279H96.8186V16.9674H91.907V15.6279H93.1721V9.37673H91.907V8.0372H94.586L94.9581 10.1209C95.3302 9.37673 95.7023 8.78138 96.2233 8.40929C96.7588 8.00722 97.4142 7.79747 98.0837 7.81394ZM104.781 3.72092C105.079 3.72092 105.377 3.79534 105.6 4.09301C105.823 4.31627 105.972 4.53952 105.972 4.8372C105.972 5.20929 105.823 5.58138 105.6 5.73022C105.377 5.95347 105.079 6.10231 104.707 6.10231C104.409 6.10231 104.112 5.95347 103.888 5.73022C103.773 5.62703 103.68 5.50097 103.616 5.36004C103.552 5.21911 103.518 5.0664 103.516 4.91161C103.516 4.53952 103.591 4.24185 103.888 4.01859C104.112 3.79534 104.409 3.72092 104.707 3.72092H104.781ZM106.047 15.6279H108.428V16.9674H101.507V15.5535H104.186V9.45115H101.581V8.0372H106.047V15.6279ZM110.586 8.0372H112.223L112.372 9.22789C112.711 8.7909 113.143 8.43498 113.637 8.18603C114.146 7.93369 114.707 7.80613 115.274 7.81394C116.019 7.81394 116.688 8.0372 117.06 8.55813C117.507 9.00464 117.73 9.59999 117.73 10.493V16.9674H115.87V11.386C115.866 10.9602 115.816 10.5361 115.721 10.1209C115.721 9.82324 115.572 9.59999 115.349 9.52557C115.2 9.37673 114.902 9.30231 114.605 9.30231C114.158 9.30231 113.786 9.37673 113.414 9.6744C113.067 9.91787 112.764 10.2201 112.521 10.5674V16.9674H110.586V8.0372ZM127.405 16.4465C127.036 16.6792 126.635 16.8549 126.214 16.9674C125.779 17.0992 125.329 17.1742 124.874 17.1907C123.833 17.1907 123.088 16.893 122.493 16.4465C122.216 16.1496 122.006 15.7966 121.878 15.4113C121.749 15.0261 121.705 14.6177 121.749 14.2139V9.45115H119.814V8.0372H121.749V6.10231L123.609 5.87906V8.11161H126.586L126.437 9.45115H123.535V14.1395C123.535 14.6605 123.684 15.0325 123.907 15.2558C124.205 15.4791 124.577 15.5535 125.098 15.5535C125.693 15.5535 126.288 15.4046 126.735 15.1814L127.479 16.3721L127.405 16.4465Z" fill="#181916"/>
</g>
<defs>
<clipPath id="clip0_2002_36">
<rect width="128" height="22.3256" fill="white"/>
</clipPath>
</defs>
</svg>
