<svg width="128" height="24" viewBox="0 0 128 24" fill="none" xmlns="http://www.w3.org/2000/svg">
<g clip-path="url(#clip0_3506_97389)">
<path fill-rule="evenodd" clip-rule="evenodd" d="M3.49814 2.54884C5.7169 1.44164 8.16265 0.865288 10.6423 0.865288C13.122 0.865288 15.5677 1.44164 17.7865 2.54884C17.9033 2.66084 17.9805 2.80786 18.0062 2.96763C18.032 3.1274 18.0049 3.29121 17.9292 3.43424C17.8535 3.57726 17.7332 3.69171 17.5866 3.76023C17.44 3.82875 17.275 3.84761 17.1167 3.81396C15.1057 2.81143 12.8894 2.2896 10.6423 2.2896C8.39527 2.2896 6.17892 2.81143 4.16791 3.81396C4.00961 3.84761 3.84466 3.82875 3.69805 3.76023C3.55144 3.69171 3.43116 3.57726 3.35544 3.43424C3.27972 3.29121 3.25269 3.1274 3.27844 2.96763C3.30419 2.80786 3.38132 2.66084 3.49814 2.54884ZM4.76326 4.7814C6.61817 3.97428 8.61942 3.55775 10.6423 3.55775C12.6652 3.55775 14.6665 3.97428 16.5214 4.7814C18.4563 5.67442 20.0935 7.01396 21.2098 8.50233C21.3282 8.66023 21.379 8.8587 21.3511 9.05408C21.3232 9.24947 21.2188 9.42577 21.0609 9.54419C20.9827 9.60283 20.8938 9.64549 20.7991 9.66974C20.7044 9.694 20.6059 9.69937 20.5092 9.68555C20.3138 9.65764 20.1375 9.55325 20.0191 9.39535C18.9606 7.95021 17.5522 6.79785 15.926 6.04652C14.2727 5.31878 12.486 4.94296 10.6795 4.94296C8.87309 4.94296 7.0864 5.31878 5.43302 6.04652C3.7214 6.7907 2.23302 8.13024 1.34 9.39535C1.21566 9.50582 1.05789 9.57144 0.891885 9.58176C0.725879 9.59207 0.561205 9.54647 0.424146 9.45224C0.287087 9.35801 0.185545 9.22059 0.135727 9.0619C0.0859102 8.90321 0.0906897 8.7324 0.149303 8.57675C1.19116 7.08838 2.90279 5.6 4.76326 4.7814ZM10.5679 6.04652C14.2888 6.04652 17.5633 7.90698 19.2005 10.6605C20.0935 12.1488 20.3912 13.6372 20.3912 14.8279C20.3912 16.9116 18.4563 18.2512 16.6702 18.2512C15.8516 18.2512 14.9586 18.0279 14.2144 17.507C13.4702 16.9116 12.9493 16.0186 12.9493 14.8279C12.9493 14.1581 12.5772 13.7116 12.2051 13.3395C11.6842 13.0419 11.0888 12.893 10.5679 12.893C9.22837 12.893 8.33535 13.8605 8.33535 14.8279C8.33535 15.5721 8.55861 16.6884 8.85628 17.4326C9.22837 18.1767 9.82372 19.0698 10.3447 19.5907C11.3121 20.4837 12.5772 21.3023 14.2144 21.6744C14.3642 21.7467 14.4855 21.8671 14.5588 22.0164C14.6322 22.1656 14.6534 22.3352 14.6192 22.4979C14.5849 22.6607 14.4971 22.8073 14.3698 22.9143C14.2425 23.0213 14.083 23.0826 13.9167 23.0884C12.5511 22.7714 11.274 22.1522 10.1793 21.2765C9.08458 20.4007 8.20018 19.2906 7.59116 18.0279C7.14465 17.1349 6.84698 15.7954 6.84698 14.8279C6.84698 12.9674 8.63302 11.4791 10.5679 11.4791C11.3121 11.4791 12.2051 11.7023 12.9493 12.2233C13.6935 12.7442 14.2888 13.6372 14.3633 14.8279C14.3633 15.5721 14.6609 16.0186 15.1074 16.3163C15.4795 16.614 16.0749 16.8372 16.7447 16.8372C17.8609 16.8372 18.9772 15.9442 18.9772 14.8279C18.9772 13.8605 18.6795 12.5954 17.9354 11.4047C17.1432 10.181 16.0492 9.18217 14.7587 8.50436C13.4683 7.82655 12.0249 7.49266 10.5679 7.53489C7.81442 7.53489 4.83767 8.87442 3.27488 11.4047C2.63567 12.5102 2.32582 13.7754 2.38186 15.0512C2.38186 16.8372 2.67954 17.5814 3.12605 18.7721C3.1867 18.8622 3.22688 18.9646 3.24377 19.0719C3.26066 19.1792 3.25384 19.2889 3.22381 19.3933C3.19377 19.4977 3.14124 19.5943 3.0699 19.6762C2.99856 19.7582 2.91015 19.8235 2.81087 19.8676C2.7116 19.9117 2.60386 19.9336 2.49524 19.9316C2.38662 19.9297 2.27974 19.904 2.18211 19.8563C2.08449 19.8086 1.99848 19.7402 1.93014 19.6557C1.8618 19.5713 1.81277 19.4729 1.78651 19.3674C1.26558 18.0279 1.04233 17.1349 0.893489 15.0512C0.863452 13.504 1.2766 11.9805 2.08419 10.6605C3.87023 7.60931 7.36791 6.12093 10.5679 6.04652ZM3.87023 14.6791C3.87023 11.4047 7.14465 8.72559 10.5679 8.72559C14.0656 8.72559 17.4144 11.107 17.4144 14.9023C17.4144 15.0997 17.336 15.289 17.1965 15.4285C17.0569 15.5681 16.8676 15.6465 16.6702 15.6465C16.4729 15.6465 16.2836 15.5681 16.144 15.4285C16.0045 15.289 15.926 15.0997 15.926 14.9023C15.926 12.1488 13.4702 10.214 10.5679 10.214C7.74 10.214 5.3586 12.3721 5.3586 14.6791C5.3586 16.0186 5.50744 17.2837 6.25163 18.6233C6.79938 19.7487 7.55715 20.759 8.48419 21.6C8.59083 21.6442 8.68574 21.7125 8.76141 21.7997C8.83708 21.8869 8.89144 21.9904 8.92018 22.1022C8.94893 22.214 8.95128 22.3309 8.92705 22.4438C8.90282 22.5567 8.85267 22.6623 8.78056 22.7525C8.70846 22.8426 8.61637 22.9147 8.51159 22.9631C8.40681 23.0115 8.2922 23.0349 8.17683 23.0314C8.06146 23.0279 7.94848 22.9976 7.84684 22.9429C7.74519 22.8882 7.65766 22.8106 7.59116 22.7163C6.48522 21.7591 5.5754 20.5966 4.91209 19.293C4.16791 17.7302 3.87023 16.2419 3.94465 14.6791H3.87023ZM10.5679 14.0837C11.0144 14.0837 11.3121 14.4558 11.3121 14.8279C11.3171 15.6011 11.5262 16.3592 11.9182 17.0257C12.3102 17.6921 12.8713 18.2432 13.5447 18.6233C14.5865 19.2186 15.2563 19.3674 16.2981 19.3674C16.7459 19.3768 17.1937 19.352 17.6377 19.293C17.7421 19.2446 17.8564 19.2211 17.9715 19.2243C18.0866 19.2276 18.1993 19.2574 18.3009 19.3116C18.4025 19.3658 18.4901 19.4428 18.5569 19.5366C18.6236 19.6304 18.6677 19.7384 18.6857 19.8522C18.7036 19.9659 18.695 20.0822 18.6604 20.192C18.6257 20.3018 18.5661 20.4021 18.4862 20.4849C18.4062 20.5678 18.3082 20.631 18.1997 20.6695C18.0912 20.708 17.9752 20.7209 17.8609 20.707L16.3726 20.8558C15.033 20.8558 14.0656 20.5581 12.8005 19.8884C11.8993 19.3856 11.1484 18.6517 10.6251 17.7622C10.1019 16.8728 9.82528 15.8599 9.82372 14.8279C9.82372 14.4558 10.1958 14.0837 10.5679 14.0837Z" fill="#F35B22"/>
<path d="M28.5765 11.3302H32.9672V12.8186H28.5765V17.8047H26.6416V6.19535H33.7858L33.5625 7.68372H28.5765V11.4047V11.3302ZM38.9951 4.55814C39.2928 4.55814 39.5904 4.63256 39.8137 4.93024C40.037 5.15349 40.1858 5.37675 40.1858 5.67442C40.1858 6.04652 40.037 6.41861 39.8137 6.56745C39.5904 6.7907 39.2928 6.93954 38.9207 6.93954C38.5486 6.93954 38.2509 6.7907 38.0276 6.56745C37.8044 6.34419 37.73 6.04652 37.73 5.74884C37.73 5.37675 37.8044 5.07907 38.0276 4.85582C38.3253 4.63256 38.623 4.55814 38.9207 4.55814H38.9951ZM40.1858 16.4651H42.5672V17.8047H35.7207V16.3907H38.3997V10.2884H35.7207V8.87442H40.1858V16.4651ZM44.7253 8.87442H46.3625L46.5114 10.0651C46.8504 9.62812 47.2826 9.2722 47.7765 9.02326C48.2849 8.77091 48.8461 8.64336 49.4137 8.65117C50.1579 8.65117 50.8276 8.87442 51.1997 9.39535C51.6463 9.84186 51.8695 10.4372 51.8695 11.3302V17.8047H49.9346V12.2233C49.9796 11.8028 49.9796 11.3787 49.9346 10.9581C49.7858 10.6605 49.7114 10.4372 49.4881 10.3628C49.3393 10.214 49.0416 10.1395 48.7439 10.1395C48.2974 10.1395 47.9253 10.214 47.5532 10.5116C47.2059 10.7551 46.9037 11.0573 46.6602 11.4047V17.8047H44.7253V8.87442ZM62.1393 9.32093L61.023 9.54419L59.5346 9.61861C60.0007 9.81065 60.4104 10.1179 60.7253 10.5116C61.023 10.8837 61.1718 11.3302 61.1718 11.9256C61.1704 12.4695 61.0162 13.0022 60.7267 13.4627C60.4373 13.9232 60.0242 14.2931 59.5346 14.5302C59.0137 14.7535 58.3439 14.9023 57.6742 14.9023C57.1532 14.9023 56.7067 14.9023 56.409 14.7535C56.2913 14.838 56.1959 14.9499 56.131 15.0796C56.0662 15.2093 56.0339 15.3527 56.037 15.4977C56.037 15.9442 56.409 16.1674 57.1532 16.1674H58.6416C59.3858 16.1674 59.9067 16.2419 60.3532 16.4651C60.8742 16.6884 61.2462 16.986 61.5439 17.3581C61.7672 17.7302 61.916 18.1023 61.916 18.6233C61.9296 19.0279 61.833 19.4287 61.6363 19.7826C61.4397 20.1365 61.1505 20.4303 60.7997 20.6326C60.0555 21.1535 58.9393 21.3767 57.5253 21.3767C56.4835 21.3767 55.7393 21.3023 55.1439 21.0791C54.6292 20.9419 54.1805 20.6251 53.8788 20.186C53.6526 19.724 53.5501 19.2112 53.5811 18.6977H55.2183C55.2183 18.9954 55.2183 19.2186 55.4416 19.4419C55.516 19.6651 55.7393 19.814 56.1114 19.8884L57.5253 20.0372C58.4183 20.0372 59.0137 19.8884 59.4602 19.6651C59.8323 19.5163 60.0555 19.1442 60.0555 18.6977C60.0555 18.4 59.9067 18.1023 59.5346 17.9535C59.2369 17.7302 58.7904 17.5814 58.3439 17.5814H56.8556C55.9625 17.5814 55.3672 17.4326 54.9951 17.1349C54.7998 16.9889 54.6434 16.7972 54.5396 16.5766C54.4358 16.356 54.3878 16.1133 54.3997 15.8698C54.3997 15.5721 54.3997 15.2744 54.623 15.0512C54.8082 14.7473 55.0634 14.4922 55.3672 14.307C54.8836 14.0735 54.4721 13.7135 54.1765 13.2651C53.9532 12.893 53.8044 12.3721 53.8044 11.7767C53.8044 11.1814 53.9532 10.6605 54.3253 10.1395C54.6412 9.68072 55.0795 9.31975 55.5904 9.09768C56.1858 8.8 56.7811 8.65117 57.5253 8.65117C58.4928 8.65117 59.2369 8.65117 59.7579 8.42791C60.3997 8.27032 61.0233 8.04584 61.6183 7.75814L62.1393 9.32093ZM57.5253 9.9907C56.93 9.9907 56.4835 10.1395 56.1858 10.5116C55.8881 10.8093 55.7393 11.2558 55.7393 11.7767C55.7393 12.3721 55.8881 12.8186 56.1858 13.1907C56.4835 13.4884 56.93 13.6372 57.5253 13.6372C58.1207 13.6372 58.5672 13.4884 58.8649 13.1907C59.1625 12.8186 59.3114 12.4465 59.3114 11.7023C59.3114 10.5861 58.716 9.9907 57.5253 9.9907ZM65.116 13.9349C65.116 14.8279 65.4137 15.4233 65.8602 15.8698C66.3067 16.3163 66.9021 16.5395 67.5718 16.5395C67.9439 16.5395 68.316 16.5395 68.6881 16.3163C69.134 16.1739 69.5593 15.9738 69.9532 15.7209L70.6974 16.9116C70.2747 17.2427 69.7957 17.4948 69.2835 17.6558C68.7133 17.8796 68.1095 18.0054 67.4974 18.0279C66.1579 18.0279 65.116 17.5814 64.3718 16.7628C63.5863 15.8006 63.1883 14.5798 63.2556 13.3395C63.2556 12.4465 63.4044 11.6279 63.7021 10.9581C64.0742 10.214 64.5207 9.69303 65.1904 9.24652C65.7858 8.87442 66.4556 8.65117 67.2742 8.65117C68.4649 8.65117 69.4323 9.09768 70.1021 9.84186C70.8462 10.5861 71.1439 11.7023 71.1439 13.1163V13.9349H65.1904H65.116ZM67.2742 10.0651C66.6044 10.0651 66.1579 10.2884 65.7858 10.7349C65.4137 11.1814 65.1904 11.7767 65.0416 12.6698H69.209C69.209 11.8512 69.0602 11.1814 68.6881 10.7349C68.316 10.2884 67.8695 9.9907 67.1997 9.9907L67.2742 10.0651ZM79.2555 8.65117L80.5951 8.87442L80.2974 12.1488H78.9579V10.3628C78.6483 10.3665 78.3429 10.4346 78.061 10.5627C77.7792 10.6909 77.5271 10.8762 77.3207 11.107C76.8303 11.6923 76.4746 12.3783 76.2788 13.1163V16.4651H78.0649V17.8047H73.0788V16.4651H74.3439V10.214H73.0788V8.87442H75.7579L76.13 10.9581C76.5021 10.214 76.8742 9.61861 77.3951 9.24652C77.9306 8.84444 78.5861 8.63469 79.2555 8.65117ZM86.6974 8.65117C88.93 8.65117 89.9718 10.214 89.9718 13.3395C89.9718 14.7535 89.6741 15.8698 89.0788 16.6884C88.8036 17.1063 88.4275 17.4482 87.9853 17.6823C87.5431 17.9164 87.0489 18.0353 86.5486 18.0279C85.5811 18.0279 84.8369 17.6558 84.316 16.986V21.1535L82.3811 21.3767V8.87442H84.0183L84.0928 10.0651C84.4649 9.61861 84.8369 9.32093 85.2835 9.02326C85.7386 8.77131 86.2517 8.64302 86.7718 8.65117H86.6974ZM86.1765 10.1395C85.8067 10.1285 85.4427 10.2325 85.1346 10.4372C84.7625 10.6605 84.5393 11.0326 84.2416 11.4047V15.5721C84.6881 16.1674 85.2835 16.5395 86.0276 16.5395C86.623 16.5395 87.1439 16.2419 87.516 15.7954C87.8137 15.2744 87.9625 14.4558 87.9625 13.3395C88.0149 12.4968 87.8617 11.654 87.516 10.8837C87.3812 10.6499 87.1853 10.4571 86.9494 10.326C86.7134 10.1949 86.4463 10.1305 86.1765 10.1395ZM98.0835 8.65117L99.423 8.87442L99.1253 12.1488H97.7858V10.3628C97.4762 10.3665 97.1708 10.4346 96.8889 10.5627C96.6071 10.6909 96.3549 10.8762 96.1486 11.107C95.6315 11.6853 95.2501 12.3718 95.0323 13.1163V16.4651H96.8183V17.8047H91.9067V16.4651H93.1718V10.214H91.9067V8.87442H94.5858L94.9579 10.9581C95.33 10.214 95.7021 9.61861 96.223 9.24652C96.7585 8.84444 97.414 8.63469 98.0835 8.65117ZM104.781 4.55814C105.079 4.55814 105.376 4.63256 105.6 4.93024C105.823 5.15349 105.972 5.37675 105.972 5.67442C105.972 6.04652 105.823 6.41861 105.6 6.56745C105.376 6.7907 105.079 6.93954 104.707 6.93954C104.409 6.93954 104.111 6.7907 103.888 6.56745C103.773 6.46426 103.68 6.33819 103.616 6.19727C103.552 6.05634 103.518 5.90363 103.516 5.74884C103.516 5.37675 103.59 5.07907 103.888 4.85582C104.111 4.63256 104.409 4.55814 104.707 4.55814H104.781ZM106.046 16.4651H108.428V17.8047H101.507V16.3907H104.186V10.2884H101.581V8.87442H106.046V16.4651ZM110.586 8.87442H112.223L112.372 10.0651C112.711 9.62812 113.143 9.2722 113.637 9.02326C114.145 8.77091 114.707 8.64336 115.274 8.65117C116.018 8.65117 116.688 8.87442 117.06 9.39535C117.507 9.84186 117.73 10.4372 117.73 11.3302V17.8047H115.869V12.2233C115.865 11.7974 115.815 11.3733 115.721 10.9581C115.721 10.6605 115.572 10.4372 115.349 10.3628C115.2 10.214 114.902 10.1395 114.604 10.1395C114.158 10.1395 113.786 10.214 113.414 10.5116C113.066 10.7551 112.764 11.0573 112.521 11.4047V17.8047H110.586V8.87442ZM127.404 17.2837C127.036 17.5165 126.635 17.6921 126.214 17.8047C125.779 17.9364 125.328 18.0114 124.874 18.0279C123.832 18.0279 123.088 17.7302 122.493 17.2837C122.216 16.9868 122.006 16.6338 121.877 16.2485C121.749 15.8633 121.705 15.4549 121.749 15.0512V10.2884H119.814V8.87442H121.749V6.93954L123.609 6.71628V8.94884H126.586L126.437 10.2884H123.535V14.9767C123.535 15.4977 123.683 15.8698 123.907 16.093C124.204 16.3163 124.576 16.3907 125.097 16.3907C125.693 16.3907 126.288 16.2419 126.735 16.0186L127.479 17.2093L127.404 17.2837Z" fill="#181916"/>
</g>
<defs>
<clipPath id="clip0_3506_97389">
<rect width="128" height="22.3256" fill="white" transform="translate(0 0.837212)"/>
</clipPath>
</defs>
</svg>
